<?xml version="1.0" encoding="UTF-8" standalone="no"?>
<!DOCTYPE svg PUBLIC "-//W3C//DTD SVG 1.1//EN" "http://www.w3.org/Graphics/SVG/1.1/DTD/svg11.dtd">
<svg width="100%" height="100%" viewBox="0 0 1280 800" version="1.1" xmlns="http://www.w3.org/2000/svg" xmlns:xlink="http://www.w3.org/1999/xlink" xml:space="preserve" style="fill-rule:evenodd;clip-rule:evenodd;stroke-linejoin:round;stroke-miterlimit:1.41421;">
    <g transform="matrix(1,0,0,1,2.93359,-5.62891)">
        <rect x="-30" y="-32.131" width="1341.86" height="857.384" style="fill:rgb(0,107,255);"/>
    </g>
    <g transform="matrix(0.834071,0,0,0.78473,177.472,86.108)">
        <g transform="matrix(1,0,0,1,-52.6375,10.8018)">

            <animateMotion path="M0,0 S0,0, 0,2 S0,2, 0,-2 S0,-2, 0,0" begin="0s" dur="1s" repeatCount="indefinite" />

            <path d="M534.802,468.768C534.802,463.066 530.447,458.438 525.083,458.438L503.201,458.438C497.837,458.438 493.482,463.066 493.482,468.768L493.482,489.428C493.482,495.129 497.837,499.758 503.201,499.758L525.083,499.758C530.447,499.758 534.802,495.129 534.802,489.428L534.802,468.768Z" style="fill:rgb(43,45,81);"/>
            <g transform="matrix(1,0,0,1,522.996,0)">
                <path d="M534.802,468.768C534.802,463.066 530.447,458.438 525.083,458.438L503.201,458.438C497.837,458.438 493.482,463.066 493.482,468.768L493.482,489.428C493.482,495.129 497.837,499.758 503.201,499.758L525.083,499.758C530.447,499.758 534.802,495.129 534.802,489.428L534.802,468.768Z" style="fill:rgb(43,45,81);"/>
            </g>
            <g transform="matrix(1,0,0,1,324.574,0)">
                <path d="M534.802,468.768C534.802,463.066 530.447,458.438 525.083,458.438L503.201,458.438C497.837,458.438 493.482,463.066 493.482,468.768L493.482,489.428C493.482,495.129 497.837,499.758 503.201,499.758L525.083,499.758C530.447,499.758 534.802,495.129 534.802,489.428L534.802,468.768Z" style="fill:rgb(43,45,81);"/>
            </g>
            <g transform="matrix(1,0,0,1,162.102,0)">
                <path d="M534.802,468.768C534.802,463.066 530.447,458.438 525.083,458.438L503.201,458.438C497.837,458.438 493.482,463.066 493.482,468.768L493.482,489.428C493.482,495.129 497.837,499.758 503.201,499.758L525.083,499.758C530.447,499.758 534.802,495.129 534.802,489.428L534.802,468.768Z" style="fill:rgb(43,45,81);"/>
            </g>
            <g transform="matrix(1.09837,0,0,1,-75.6121,0.308594)">
                <path d="M1089.29,499.221C1089.29,493.595 1085.38,489.028 1080.56,489.028L468.577,489.028C463.758,489.028 459.845,493.595 459.845,499.221C459.845,504.847 463.758,509.414 468.577,509.414L1080.56,509.414C1085.38,509.414 1089.29,504.847 1089.29,499.221Z" style="fill:rgb(72,73,112);"/>
            </g>
            <path d="M511.576,481.34C431.602,475.262 401.485,455.572 393.904,431.279C373.14,364.74 410.486,280.178 511.576,268.779L511.576,268.674L925.004,268.674L925.004,268.753C1102.36,279.885 1241.38,377.197 1180.98,437.285C1129.36,488.645 975.057,482.182 923.723,481.411L511.576,481.411L511.576,481.34Z" style="fill:rgb(224,237,255);"/>
            <clipPath id="_clip1">
                <path d="M511.576,481.34C431.602,475.262 401.485,455.572 393.904,431.279C373.14,364.74 410.486,280.178 511.576,268.779L511.576,268.674L925.004,268.674L925.004,268.753C1102.36,279.885 1241.38,377.197 1180.98,437.285C1129.36,488.645 975.057,482.182 923.723,481.411L511.576,481.411L511.576,481.34Z"/>
            </clipPath>
            <g clip-path="url(#_clip1)">
                <g transform="matrix(1.68879,0,0,1.25594,-670.019,-83.7798)">
                    <path d="M1104.38,335.497C1104.38,328.409 1100.36,322.654 1095.4,322.654L979.88,322.654C974.92,322.654 970.893,328.409 970.893,335.497L970.893,361.185C970.893,368.273 974.92,374.029 979.88,374.029L1095.4,374.029C1100.36,374.029 1104.38,368.273 1104.38,361.185L1104.38,335.497Z"/>
                </g>
                <g transform="matrix(0.581665,0,0,0.62037,431.851,130.851)">
                    <path d="M1119.78,332.742C1119.78,329.327 1117,326.554 1113.57,326.554L992.704,326.554C989.277,326.554 986.495,329.327 986.495,332.742C986.495,336.157 989.277,338.929 992.704,338.929L1113.57,338.929C1117,338.929 1119.78,336.157 1119.78,332.742Z" style="fill:white;"/>
                </g>
                <g transform="matrix(0.180905,0,0,0.62037,910.536,130.851)">
                    <path d="M1119.78,332.742C1119.78,329.327 1110.84,326.554 1099.82,326.554L1006.46,326.554C995.44,326.554 986.495,329.327 986.495,332.742C986.495,336.157 995.44,338.929 1006.46,338.929L1099.82,338.929C1110.84,338.929 1119.78,336.157 1119.78,332.742Z" style="fill:white;"/>
                </g>
                <g transform="matrix(1,0,0,0.714977,0,119.043)">
                    <rect x="366.441" y="417.66" width="843.984" height="34.464" style="fill:rgb(255,0,103);"/>
                </g>
            </g>
            <g transform="matrix(1.79082,0,0,0.782741,-375.397,-0.180125)">
                <path d="M679.245,376.186C679.245,367.417 676.318,360.297 672.711,360.297L539.774,360.297C536.168,360.297 533.24,367.417 533.24,376.186C533.24,384.956 536.168,392.076 539.774,392.076L672.711,392.076C676.318,392.076 679.245,384.956 679.245,376.186Z" style="fill:white;"/>
            </g>
            <g transform="matrix(0.367451,0,0,0.782741,657.173,-0.180125)">
                <path d="M679.245,376.186C679.245,367.417 664.976,360.297 647.4,360.297L565.085,360.297C547.509,360.297 533.24,367.417 533.24,376.186C533.24,384.956 547.509,392.076 565.085,392.076L647.4,392.076C664.976,392.076 679.245,384.956 679.245,376.186Z" style="fill:white;"/>
            </g>
        </g>
        <g>
            <animateMotion path="M0,0 S0,0, 0,2 S0,2, 0,-2 S0,-2, 0,0" begin="0s" dur="1s" repeatCount="indefinite"/>

            <g transform="matrix(0.740536,0,0,0.673955,97.0895,126.144)">
            <path d="M287.662,351.768C287.662,345.359 283.207,340.156 277.72,340.156L94.982,340.156C89.494,340.156 85.039,345.359 85.039,351.768C85.039,358.177 89.494,363.38 94.982,363.38L277.72,363.38C283.207,363.38 287.662,358.177 287.662,351.768Z" style="fill:rgb(149,189,243);"/>

            <animateMotion path="M0,0 S0,0, -2,0 S-2,0, 1,0 S1,0, 0,0" begin="0s" dur="1s" repeatCount="indefinite"/>

            </g>

            <g transform="matrix(0.933339,0,0,0.641287,-13.8644,174.416)">
                <path d="M287.662,351.768C287.662,345.359 284.299,340.156 280.156,340.156L92.545,340.156C88.402,340.156 85.039,345.359 85.039,351.768C85.039,358.177 88.402,363.38 92.545,363.38L280.156,363.38C284.299,363.38 287.662,358.177 287.662,351.768Z" style="fill:rgb(149,189,243);"/>

                <animateMotion path="M0,0 S0,0, 1,0 S2,0, -2,0 S-2,0, 0,0" begin="0s" dur="1s" repeatCount="indefinite"/>

            </g>

            <g transform="matrix(0.919563,0,0,0.682837,45.5903,199.977)">
                <path d="M287.662,351.768C287.662,345.359 284.027,340.156 279.55,340.156L93.151,340.156C88.674,340.156 85.039,345.359 85.039,351.768C85.039,358.177 88.674,363.38 93.151,363.38L279.55,363.38C284.027,363.38 287.662,358.177 287.662,351.768Z" style="fill:rgb(149,189,243);"/>

                <animateMotion path="M0,0 S0,0, 2,0 S2,0, -1,0 S-1,0, 0,0" begin="0s" dur="1s" repeatCount="indefinite"/>

            </g>
        </g>
    </g>
</svg>
